<svg width="2729" height="1819" xmlns="http://www.w3.org/2000/svg" xmlns:xlink="http://www.w3.org/1999/xlink" xml:space="preserve" overflow="hidden"><defs><clipPath id="clip0"><rect x="587" y="377" width="2729" height="1819"/></clipPath></defs><g clip-path="url(#clip0)" transform="translate(-587 -377)"><rect x="587" y="377" width="2729" height="1819" fill="#FFFFFF"/><g><path d="M1723.56 575.5 1723.56 2038.5M2494.58 575.5 2494.58 2038.5M3265.5 575.5 3265.5 2038.5" stroke="#D9D9D9" stroke-width="3.4375" stroke-linejoin="round" stroke-miterlimit="10" fill="none"/></g><g><path d="M1185.04 720.024 1290.04 720.024 1290.04 2038 1185.04 2038ZM1956.06 714.023 2061.07 714.023 2061.07 2038 1956.06 2038ZM2727.09 1106.04 2832.09 1106.04 2832.09 2038 2727.09 2038Z" fill="#E7E6E6"/></g><g><path d="M1385.05 1012.03 1490.05 1012.03 1490.05 2038 1385.05 2038ZM2156.07 1056.03 2261.07 1056.03 2261.07 2038 2156.07 2038ZM2927.1 1560.05 3032.1 1560.05 3032.1 2038 2927.1 2038Z" fill="#00B0F0"/></g><g><path d="M0 0 0.000360892 1463" stroke="#D9D9D9" stroke-width="3.4375" stroke-linejoin="round" stroke-miterlimit="10" fill="none" fill-rule="evenodd" transform="matrix(1 0 0 -1 951.5 2038.5)"/></g><g><path d="M930.5 2038.5 951.5 2038.5M930.5 1829.56 951.5 1829.56M930.5 1620.55 951.5 1620.55M930.5 1411.55 951.5 1411.55M930.5 1202.54 951.5 1202.54M930.5 993.533 951.5 993.533M930.5 784.526 951.5 784.526M930.5 575.5 951.5 575.5" stroke="#D9D9D9" stroke-width="3.4375" stroke-linejoin="round" stroke-miterlimit="10" fill="none"/></g><g><path d="M951.5 2038.5 3265.5 2038.5" stroke="#D9D9D9" stroke-width="3.4375" stroke-linejoin="round" stroke-miterlimit="10" fill="none" fill-rule="evenodd"/></g><g><text font-family="Times New Roman,Times New Roman_MSFontService,sans-serif" font-weight="400" font-size="73" transform="matrix(1 0 0 1 779.505 2060)">940</text></g><g><text font-family="Times New Roman,Times New Roman_MSFontService,sans-serif" font-weight="400" font-size="73" transform="matrix(1 0 0 1 779.505 1852)">960</text></g><g><text font-family="Times New Roman,Times New Roman_MSFontService,sans-serif" font-weight="400" font-size="73" transform="matrix(1 0 0 1 779.505 1643)">980</text></g><g><text font-family="Times New Roman,Times New Roman_MSFontService,sans-serif" font-weight="400" font-size="73" transform="matrix(1 0 0 1 742.838 1434)">1000</text></g><g><text font-family="Times New Roman,Times New Roman_MSFontService,sans-serif" font-weight="400" font-size="73" transform="matrix(1 0 0 1 742.838 1225)">1020</text></g><g><text font-family="Times New Roman,Times New Roman_MSFontService,sans-serif" font-weight="400" font-size="73" transform="matrix(1 0 0 1 742.838 1016)">1040</text></g><g><text font-family="Times New Roman,Times New Roman_MSFontService,sans-serif" font-weight="400" font-size="73" transform="matrix(1 0 0 1 742.838 807)">1060</text></g><g><text font-family="Times New Roman,Times New Roman_MSFontService,sans-serif" font-weight="400" font-size="73" transform="matrix(1 0 0 1 742.838 598)">1080</text></g><g><text font-family="Times New Roman,Times New Roman_MSFontService,sans-serif" font-weight="400" font-size="73" transform="matrix(1 0 0 1 1111.08 2150)">IDM</text></g><g><text font-family="Times New Roman,Times New Roman_MSFontService,sans-serif" font-weight="400" font-size="73" transform="matrix(1 0 0 1 1270.16 2150)">-</text></g><g><text font-family="Times New Roman,Times New Roman_MSFontService,sans-serif" font-weight="400" font-size="73" transform="matrix(1 0 0 1 1300.09 2150)">MOBIL</text></g><g><text font-family="Times New Roman,Times New Roman_MSFontService,sans-serif" font-weight="400" font-size="73" transform="matrix(1 0 0 1 1933.88 2150)">Pure</text></g><g><text font-family="Times New Roman,Times New Roman_MSFontService,sans-serif" font-weight="400" font-size="73" transform="matrix(1 0 0 1 2090.31 2150)">-</text></g><g><text font-family="Times New Roman,Times New Roman_MSFontService,sans-serif" font-weight="400" font-size="73" transform="matrix(1 0 0 1 2120.24 2150)">DRL</text></g><g><text font-family="Times New Roman,Times New Roman_MSFontService,sans-serif" font-weight="400" font-size="73" transform="matrix(1 0 0 1 2686.69 2150)">HIDS</text></g><g><text font-family="Times New Roman,Times New Roman_MSFontService,sans-serif" font-weight="400" font-size="73" transform="matrix(1 0 0 1 2879.83 2150)">-</text></g><g><text font-family="Times New Roman,Times New Roman_MSFontService,sans-serif" font-weight="400" font-size="73" transform="matrix(1 0 0 1 2909.76 2150)">DRL</text></g><g><text font-family="Times New Roman,Times New Roman_MSFontService,sans-serif" font-weight="400" font-size="73" transform="matrix(6.12323e-17 -1 1 6.12323e-17 727.061 1820)">Average cumulative delay per vehicle (s)</text></g><g><rect x="1622" y="440" width="35.9998" height="37.0001" fill="#E7E6E6"/></g><g><text font-family="Times New Roman,Times New Roman_MSFontService,sans-serif" font-weight="400" font-size="73" transform="matrix(1 0 0 1 1674.79 481)">Original</text></g><g><rect x="1983" y="440" width="36.9998" height="37.0001" fill="#00B0F0"/></g><g><text font-family="Times New Roman,Times New Roman_MSFontService,sans-serif" font-weight="400" font-size="73" transform="matrix(1 0 0 1 2036.23 481)">Adaptive</text></g><text font-family="Times New Roman,Times New Roman_MSFontService,sans-serif" font-weight="400" font-size="83" transform="matrix(1 0 0 1 1151.81 679)">0.0%</text><text font-family="Times New Roman,Times New Roman_MSFontService,sans-serif" font-weight="400" font-size="83" transform="matrix(1 0 0 1 1349.23 997)">-</text><text font-family="Times New Roman,Times New Roman_MSFontService,sans-serif" font-weight="400" font-size="83" transform="matrix(1 0 0 1 1376.73 997)">2.6%</text><text font-family="Times New Roman,Times New Roman_MSFontService,sans-serif" font-weight="400" font-size="83" transform="matrix(1 0 0 1 1896.09 679)">+0.1%</text><text font-family="Times New Roman,Times New Roman_MSFontService,sans-serif" font-weight="400" font-size="83" transform="matrix(1 0 0 1 2106.6 1019)">-</text><text font-family="Times New Roman,Times New Roman_MSFontService,sans-serif" font-weight="400" font-size="83" transform="matrix(1 0 0 1 2134.1 1019)">3.0%</text><text font-family="Times New Roman,Times New Roman_MSFontService,sans-serif" font-weight="400" font-size="83" transform="matrix(1 0 0 1 2680.12 1060)">-</text><text font-family="Times New Roman,Times New Roman_MSFontService,sans-serif" font-weight="400" font-size="83" transform="matrix(1 0 0 1 2707.62 1060)">3.4%</text><text font-family="Times New Roman,Times New Roman_MSFontService,sans-serif" font-weight="400" font-size="83" transform="matrix(1 0 0 1 2880.4 1522)">-</text><text font-family="Times New Roman,Times New Roman_MSFontService,sans-serif" font-weight="400" font-size="83" transform="matrix(1 0 0 1 2907.9 1522)">7.5%</text></g></svg>